#N canvas 521 134 698 533 12;
#X obj 518 95 int;
#X floatatom 518 119 5 0 0 0 - - - 0;
#X obj 518 142 expr pow(2 \, $f1) - 1;
#X floatatom 518 166 5 0 0 0 - - - 0;
#X obj 518 189 expr 1 / $f1;
#X floatatom 518 213 5 0 0 0 - - - 0;
#X obj 367 237 expr~ round($v1 / $f2);
#X obj 367 261 *~;
#X text 506 45 BIT CRUSH;
#X obj 120 124 hsl 162 19 0 1 0 0 empty empty bit-crush 10 10 0 12 #0400ff #ffffff #ffffff 0 1;
#X floatatom 455 316 5 0 0 0 - - - 0;
#X obj 455 339 * -1;
#X obj 455 363 + 1;
#X floatatom 455 387 5 0 0 0 - - - 0;
#X obj 376 425 *~;
#X obj 416 425 *~;
#X obj 120 157 hsl 162 19 0 1 0 0 empty empty mix 10 10 0 12 #c7c6ff #000000 #000000 0 1;
#X obj 328 70 inlet~;
#X obj 401 475 outlet~;
#X obj 398 174 + 3;
#X obj 398 150 * 5;
#X obj 138 26 r bit-crush;
#X obj 138 63 r bit-crush-mix;
#X connect 0 0 1 0;
#X connect 1 0 2 0;
#X connect 2 0 3 0;
#X connect 3 0 4 0;
#X connect 4 0 5 0;
#X connect 5 0 6 1;
#X connect 5 0 7 1;
#X connect 6 0 7 0;
#X connect 7 0 15 0;
#X connect 9 0 20 0;
#X connect 10 0 11 0;
#X connect 10 0 15 1;
#X connect 11 0 12 0;
#X connect 12 0 13 0;
#X connect 13 0 14 1;
#X connect 14 0 18 0;
#X connect 15 0 18 0;
#X connect 16 0 10 0;
#X connect 17 0 6 0;
#X connect 17 0 14 0;
#X connect 19 0 0 0;
#X connect 20 0 19 0;
#X connect 21 0 9 0;
#X connect 22 0 16 0;
#X coords 0 -1 1 1 200 100 1 100 100;
