#N canvas 0 38 1512 916 12;
#X declare -lib zexy;
#X obj 38 81 adc~;
#N canvas 92 130 1028 567 vst-amp 0;
#X obj 189 261 vstplugin~;
#N canvas 101 355 513 414 message-out 0;
#X obj 20 17 inlet;
#X obj 20 63 s \$0-program-data;
#X obj 20 40 route program_data bank_data, f 39;
#X obj 135 63 s \$0-bank-data;
#X obj 278 135 print;
#X obj 278 114 spigot 1;
#X obj 337 114 tgl 15 0 empty empty empty 17 7 0 10 #fcfcfc #000000 #000000 0 1;
#X text 358 113 print messages;
#X obj 251 86 s \$0-out;
#X obj 251 63 t a a;
#X msg 28 178 param_automated <index> <value>;
#X msg 28 204 latency <numsamples>;
#X msg 30 257 midi <bytes...>;
#X msg 29 284 sysex <bytes...>;
#X text 233 172 a parameter has been changed in the GUI (or by changing a linked parameter)., f 40;
#X text 162 204 the plugin's internal processing latency has changed;
#X text 139 257 a MIDI message sent by the plugin;
#X text 139 284 a SysEx message sent by the plugin;
#X text 28 153 events:;
#X text 163 222 NOTE: the value includes the additional latency caused by multithreading (see the "-t" flag for "open"), f 55;
#X msg 29 337 crash;
#X text 312 85 goes to vstpresetbrowser;
#X text 23 87 see [pd preset];
#X text 83 338 the plugin subprocess has crashed.;
#X text 84 356 This is only sent for bridged or sandboxed plugins \, because normal plugins would simply crash Pd., f 52;
#X msg 29 311 update;
#X text 87 312 multiple parameters have changed internally;
#X connect 0 0 2 0;
#X connect 2 0 1 0;
#X connect 2 1 3 0;
#X connect 2 2 9 0;
#X connect 5 0 4 0;
#X connect 6 0 5 1;
#X connect 9 0 8 0;
#X connect 9 1 5 0;
#X restore 256 287 pd message-out;
#X msg 59 261 param_list;
#X obj 171 339 outlet~;
#X obj 233 339 outlet~;
#X obj 549 106 loadbang;
#X msg 771 158 \; pd dsp 1;
#X msg 475 259 preset_list;
#X text 567 260 find out path of presets;
#X text 658 283 save current settings as preset;
#X msg 475 309 param_list;
#X text 563 309 print list of plugin parameters;
#X obj 549 151 del 5;
#X obj 460 151 del 10;
#X obj 191 70 inlet~;
#X obj 282 72 inlet~;
#X obj 461 333 s \$0-amp-msg;
#X obj 59 235 r \$0-amp-msg;
#X msg 549 174 open -e Archetype_Nolly;
#X text 163 211 ARCHETYPE NOLLY AMP;
#X msg 475 284 preset_save <Accordoni> 0;
#X msg 460 202 program_read /Users/vincemad/Library/Audio/Presets/Neural\ DSP/Archetype\ Nolly/_Accordoni_.fxp, f 63;
#X connect 0 0 3 0;
#X connect 0 1 4 0;
#X connect 0 2 1 0;
#X connect 2 0 0 0;
#X connect 5 0 6 0;
#X connect 5 0 12 0;
#X connect 5 0 13 0;
#X connect 7 0 16 0;
#X connect 10 0 16 0;
#X connect 12 0 18 0;
#X connect 13 0 21 0;
#X connect 14 0 0 0;
#X connect 15 0 0 1;
#X connect 17 0 0 0;
#X connect 18 0 16 0;
#X connect 20 0 16 0;
#X connect 21 0 16 0;
#X restore 38 112 pd vst-amp;
#X obj 39 169 *~;
#X obj 106 140 *~;
#X obj 127 114 hsl 162 19 0 1 0 0 empty empty guitar\ vol 10 10 0 12 #fcfcfc #000000 #000000 0 1;
#X obj 124 88 r guitar-volume;
#X obj 305 487 hsl 162 19 0 1 0 0 empty empty MAIN\ VOLUME 10 10 0 12 #fcfcfc #000000 #000000 0 1;
#X obj 302 463 r general-volume;
#X obj 235 622 dac~ 1 2, f 10;
#X obj 235 592 *~;
#X obj 284 590 *~;
#N canvas 92 130 1028 567 vst-rev 0;
#X obj 189 261 vstplugin~;
#N canvas 101 355 513 414 message-out 0;
#X obj 20 17 inlet;
#X obj 20 63 s \$0-program-data;
#X obj 20 40 route program_data bank_data, f 39;
#X obj 135 63 s \$0-bank-data;
#X obj 278 135 print;
#X obj 278 114 spigot 1;
#X obj 337 114 tgl 15 0 empty empty empty 17 7 0 10 #fcfcfc #000000 #000000 0 1;
#X text 358 113 print messages;
#X obj 251 86 s \$0-out;
#X obj 251 63 t a a;
#X msg 28 178 param_automated <index> <value>;
#X msg 28 204 latency <numsamples>;
#X msg 30 257 midi <bytes...>;
#X msg 29 284 sysex <bytes...>;
#X text 233 172 a parameter has been changed in the GUI (or by changing a linked parameter)., f 40;
#X text 162 204 the plugin's internal processing latency has changed;
#X text 139 257 a MIDI message sent by the plugin;
#X text 139 284 a SysEx message sent by the plugin;
#X text 28 153 events:;
#X text 163 222 NOTE: the value includes the additional latency caused by multithreading (see the "-t" flag for "open"), f 55;
#X msg 29 337 crash;
#X text 312 85 goes to vstpresetbrowser;
#X text 23 87 see [pd preset];
#X text 83 338 the plugin subprocess has crashed.;
#X text 84 356 This is only sent for bridged or sandboxed plugins \, because normal plugins would simply crash Pd., f 52;
#X msg 29 311 update;
#X text 87 312 multiple parameters have changed internally;
#X connect 0 0 2 0;
#X connect 2 0 1 0;
#X connect 2 1 3 0;
#X connect 2 2 9 0;
#X connect 5 0 4 0;
#X connect 6 0 5 1;
#X connect 9 0 8 0;
#X connect 9 1 5 0;
#X restore 256 287 pd message-out;
#X msg 59 261 param_list;
#X obj 59 235 r \$0-rev-msg;
#X text 76 202 VALHALLA SUPERMASSIVE REVERB PLUGIN;
#X obj 171 339 outlet~;
#X obj 233 339 outlet~;
#X msg 549 174 open -e ValhallaSupermassive;
#X obj 549 106 loadbang;
#X msg 771 158 \; pd dsp 1;
#X obj 461 333 s \$0-rev-msg;
#X msg 475 259 preset_list;
#X text 567 260 find out path of presets;
#X text 658 283 save current settings as preset;
#X msg 475 309 param_list;
#X text 563 309 print list of plugin parameters;
#X msg 475 284 preset_save <Clicks> 0;
#X obj 549 151 del 5;
#X obj 460 151 del 10;
#X msg 460 202 program_read /Users/vincemad/Library/Audio/Presets/Valhalla\\\ DSP\\\,\\\ LLC/ValhallaSupermassive/_Clicks_.fxp, f 63;
#X obj 191 70 inlet~;
#X obj 282 72 inlet~;
#X connect 0 0 5 0;
#X connect 0 1 6 0;
#X connect 0 2 1 0;
#X connect 2 0 0 0;
#X connect 3 0 0 0;
#X connect 7 0 10 0;
#X connect 8 0 9 0;
#X connect 8 0 17 0;
#X connect 8 0 18 0;
#X connect 11 0 10 0;
#X connect 14 0 10 0;
#X connect 16 0 10 0;
#X connect 17 0 7 0;
#X connect 18 0 19 0;
#X connect 19 0 10 0;
#X connect 20 0 0 0;
#X connect 21 0 0 1;
#X restore 235 564 pd vst-rev;
#N canvas 0 38 1512 916 delay 0;
#X floatatom 310 229 5 0 0 0 - - - 0;
#X floatatom 367 229 5 0 0 0 - - - 0;
#X obj 311 180 * 300;
#X obj 311 204 + 70;
#X obj 116 126 hsl 120 19 0 1 0 0 empty empty sd-del-time 10 10 0 12 #e3c6ff #000000 #000000 0 1;
#X obj 116 159 hsl 120 19 0 1 0 0 empty empty sd-del-feedback 10 10 0 12 #c7c6ff #000000 #000000 0 1;
#X obj 311 113 r del-time;
#X obj 448 203 r del-feedback;
#X obj 498 352 +~;
#X obj 680 358 +~;
#X obj 528 352 *~ 0.3;
#X obj 711 359 *~ 0.3;
#X obj 711 332 delread~ \$0-del-1L 160;
#X obj 692 388 delwrite~ \$0-del-1L 2000;
#X obj 528 325 delread~ \$0-del-1R 160;
#X obj 507 383 delwrite~ \$0-del-1R 2000;
#X obj 504 92 inlet~;
#X obj 644 75 inlet~;
#X obj 492 488 outlet~;
#X obj 676 480 outlet~;
#X connect 0 0 12 0;
#X connect 0 0 14 0;
#X connect 1 0 10 1;
#X connect 1 0 11 1;
#X connect 2 0 3 0;
#X connect 3 0 0 0;
#X connect 4 0 2 0;
#X connect 5 0 1 0;
#X connect 6 0 4 0;
#X connect 7 0 5 0;
#X connect 8 0 15 0;
#X connect 8 0 18 0;
#X connect 9 0 13 0;
#X connect 9 0 19 0;
#X connect 10 0 8 1;
#X connect 11 0 9 1;
#X connect 12 0 11 0;
#X connect 14 0 10 0;
#X connect 16 0 8 0;
#X connect 17 0 9 0;
#X coords 0 -1 1 1 150 100 1 100 100;
#X restore 118 411 pd delay;
#X obj 956 91 oscparse;
#X obj 956 119 route list;
#X obj 530 39 declare -lib zexy;
#X obj 956 63 netreceive -u -b 9999;
#X obj 844 241 unpack f f f;
#X obj 1064 241 unpack f f f;
#X listbox 844 214 27 0 0 0 - - - 0;
#X listbox 1064 214 35 0 0 0 - - - 0;
#X obj 844 186 route accelerometer_left;
#X obj 1064 186 route gyroscope_left;
#X obj 844 278 vsl 19 162 -1 1 0 0 empty empty empty 0 -9 0 12 #fcfcfc #000000 #000000 0 1;
#X obj 884 278 vsl 19 162 -1 1 0 0 empty empty empty 0 -9 0 12 #fcfcfc #000000 #000000 0 1;
#X obj 925 278 vsl 19 162 -1 1 0 0 empty empty empty 0 -9 0 12 #fcfcfc #000000 #000000 0 1;
#X obj 1064 271 vsl 19 162 -360 360 0 0 empty empty empty 0 -9 0 12 #fcfcfc #000000 #000000 0 1;
#X obj 1104 278 vsl 19 162 -360 360 0 0 empty empty empty 0 -9 0 12 #fcfcfc #000000 #000000 0 1;
#X obj 1145 278 vsl 19 162 -360 360 0 0 empty empty empty 0 -9 0 12 #fcfcfc #000000 #000000 0 1;
#X text 978 39 LEFT HAND;
#X obj 151 255 bit-crush;
#X obj 844 531 vsl 19 162 -1 1 0 0 empty empty empty 0 -9 0 12 #fcfcfc #000000 #000000 0 1;
#X obj 844 453 sig~;
#X obj 844 501 snapshot~;
#X obj 758 371 tgl 19 0 empty empty empty 0 -10 0 12 #fcfcfc #000000 #000000 0 1;
#X obj 758 395 metro 50;
#X obj 918 534 vsl 19 162 -1 1 0 0 empty empty empty 0 -9 0 12 #fcfcfc #000000 #000000 0 1;
#X obj 918 456 sig~;
#X obj 918 504 snapshot~;
#X obj 994 534 vsl 19 162 -1 1 0 0 empty empty empty 0 -9 0 12 #fcfcfc #000000 #000000 0 1;
#X obj 994 456 sig~;
#X obj 994 504 snapshot~;
#X obj 1079 451 sig~;
#X obj 1079 499 snapshot~;
#X obj 1153 454 sig~;
#X obj 1153 502 snapshot~;
#X obj 1229 454 sig~;
#X obj 1229 502 snapshot~;
#X obj 1096 536 vsl 19 162 -360 360 0 0 empty empty empty 0 -9 0 12 #fcfcfc #000000 #000000 0 1;
#X obj 1136 543 vsl 19 162 -360 360 0 0 empty empty empty 0 -9 0 12 #fcfcfc #000000 #000000 0 1;
#X obj 1177 543 vsl 19 162 -360 360 0 0 empty empty empty 0 -9 0 12 #fcfcfc #000000 #000000 0 1;
#X obj 888 716 +;
#X floatatom 888 740 5 0 0 0 - - - 0;
#X obj 1118 747 +;
#X floatatom 1118 771 5 0 0 0 - - - 0;
#X obj 844 477 lop~ 3;
#X obj 918 480 lop~ 3;
#X obj 994 480 lop~ 3;
#X obj 1079 475 lop~ 3;
#X obj 1153 478 lop~ 3;
#X obj 1229 478 lop~ 3;
#X obj 888 763 + 1;
#X obj 888 787 / 2;
#X obj 685 797 s bit-crush;
#X obj 611 550 rzero~ 1;
#X obj 611 523 +~;
#X obj 611 605 snapshot~;
#X obj 611 657 vsl 19 162 -1 1 0 0 empty empty empty 0 -9 0 12 #fcfcfc #000000 #000000 0 1;
#X obj 685 747 - 1;
#X obj 685 771 abs;
#X obj 670 829 s del-feedback;
#X obj 611 629 * 1000;
#X obj 465 719 * 10;
#X obj 453 359 vcf~ 100;
#X obj 611 576 rzero~ 1;
#X text 599 488 DERIVATIVE;
#X connect 0 0 1 0;
#X connect 1 0 2 0;
#X connect 1 1 3 0;
#X connect 2 0 30 0;
#X connect 2 0 73 0;
#X connect 3 0 30 0;
#X connect 4 0 3 1;
#X connect 4 0 2 1;
#X connect 5 0 4 0;
#X connect 6 0 9 1;
#X connect 6 0 10 1;
#X connect 7 0 6 0;
#X connect 9 0 8 0;
#X connect 10 0 8 1;
#X connect 11 0 9 0;
#X connect 11 1 10 0;
#X connect 13 0 14 0;
#X connect 14 0 21 0;
#X connect 14 0 22 0;
#X connect 16 0 13 0;
#X connect 17 0 23 0;
#X connect 17 1 24 0;
#X connect 17 2 25 0;
#X connect 18 0 26 0;
#X connect 18 1 27 0;
#X connect 18 2 28 0;
#X connect 21 0 17 0;
#X connect 21 0 19 0;
#X connect 22 0 18 0;
#X connect 22 0 20 0;
#X connect 23 0 32 0;
#X connect 24 0 37 0;
#X connect 25 0 40 0;
#X connect 26 0 42 0;
#X connect 27 0 44 0;
#X connect 28 0 46 0;
#X connect 30 0 12 1;
#X connect 30 0 12 0;
#X connect 31 0 51 0;
#X connect 32 0 55 0;
#X connect 33 0 31 0;
#X connect 34 0 35 0;
#X connect 35 0 33 0;
#X connect 35 0 38 0;
#X connect 35 0 47 0;
#X connect 35 0 45 0;
#X connect 35 0 43 0;
#X connect 35 0 41 0;
#X connect 35 0 66 0;
#X connect 36 0 51 0;
#X connect 37 0 56 0;
#X connect 38 0 36 0;
#X connect 39 0 51 1;
#X connect 40 0 57 0;
#X connect 41 0 39 0;
#X connect 42 0 58 0;
#X connect 43 0 48 0;
#X connect 44 0 59 0;
#X connect 45 0 49 0;
#X connect 46 0 60 0;
#X connect 47 0 50 0;
#X connect 48 0 53 0;
#X connect 49 0 53 0;
#X connect 50 0 53 1;
#X connect 51 0 52 0;
#X connect 52 0 61 0;
#X connect 53 0 54 0;
#X connect 55 0 33 0;
#X connect 55 0 65 0;
#X connect 56 0 38 0;
#X connect 56 0 65 0;
#X connect 57 0 41 0;
#X connect 57 0 65 0;
#X connect 58 0 43 0;
#X connect 59 0 45 0;
#X connect 60 0 47 0;
#X connect 61 0 62 0;
#X connect 64 0 74 0;
#X connect 65 0 64 0;
#X connect 66 0 71 0;
#X connect 67 0 68 0;
#X connect 67 0 70 0;
#X connect 67 0 72 0;
#X connect 68 0 69 0;
#X connect 69 0 63 0;
#X connect 71 0 67 0;
#X connect 72 0 73 2;
#X connect 73 0 11 0;
#X connect 73 0 11 1;
#X connect 74 0 66 0;
