#N canvas 0 38 1512 916 12;
#X declare -lib zexy;
#X obj 38 81 adc~;
#N canvas 92 130 1028 567 vst-amp 0;
#X obj 189 261 vstplugin~;
#N canvas 101 355 513 414 message-out 0;
#X obj 20 17 inlet;
#X obj 20 63 s \$0-program-data;
#X obj 20 40 route program_data bank_data, f 39;
#X obj 135 63 s \$0-bank-data;
#X obj 278 135 print;
#X obj 278 114 spigot 1;
#X obj 337 114 tgl 15 0 empty empty empty 17 7 0 10 #fcfcfc #000000 #000000 0 1;
#X text 358 113 print messages;
#X obj 251 86 s \$0-out;
#X obj 251 63 t a a;
#X msg 28 178 param_automated <index> <value>;
#X msg 28 204 latency <numsamples>;
#X msg 30 257 midi <bytes...>;
#X msg 29 284 sysex <bytes...>;
#X text 233 172 a parameter has been changed in the GUI (or by changing a linked parameter)., f 40;
#X text 162 204 the plugin's internal processing latency has changed;
#X text 139 257 a MIDI message sent by the plugin;
#X text 139 284 a SysEx message sent by the plugin;
#X text 28 153 events:;
#X text 163 222 NOTE: the value includes the additional latency caused by multithreading (see the "-t" flag for "open"), f 55;
#X msg 29 337 crash;
#X text 312 85 goes to vstpresetbrowser;
#X text 23 87 see [pd preset];
#X text 83 338 the plugin subprocess has crashed.;
#X text 84 356 This is only sent for bridged or sandboxed plugins \, because normal plugins would simply crash Pd., f 52;
#X msg 29 311 update;
#X text 87 312 multiple parameters have changed internally;
#X connect 0 0 2 0;
#X connect 2 0 1 0;
#X connect 2 1 3 0;
#X connect 2 2 9 0;
#X connect 5 0 4 0;
#X connect 6 0 5 1;
#X connect 9 0 8 0;
#X connect 9 1 5 0;
#X restore 256 287 pd message-out;
#X msg 59 261 param_list;
#X obj 171 339 outlet~;
#X obj 233 339 outlet~;
#X obj 549 106 loadbang;
#X msg 771 158 \; pd dsp 1;
#X msg 475 259 preset_list;
#X text 567 260 find out path of presets;
#X text 658 283 save current settings as preset;
#X msg 475 309 param_list;
#X text 563 309 print list of plugin parameters;
#X obj 549 151 del 5;
#X obj 460 151 del 10;
#X obj 191 70 inlet~;
#X obj 282 72 inlet~;
#X obj 461 333 s \$0-amp-msg;
#X obj 59 235 r \$0-amp-msg;
#X msg 549 174 open -e Archetype_Nolly;
#X text 163 211 ARCHETYPE NOLLY AMP;
#X msg 475 284 preset_save <Accordoni> 0;
#X msg 460 202 program_read /Users/vincemad/Library/Audio/Presets/Neural\ DSP/Archetype\ Nolly/_Accordoni_.fxp, f 63;
#X connect 0 0 3 0;
#X connect 0 1 4 0;
#X connect 0 2 1 0;
#X connect 2 0 0 0;
#X connect 5 0 6 0;
#X connect 5 0 12 0;
#X connect 5 0 13 0;
#X connect 7 0 16 0;
#X connect 10 0 16 0;
#X connect 12 0 18 0;
#X connect 13 0 21 0;
#X connect 14 0 0 0;
#X connect 15 0 0 1;
#X connect 17 0 0 0;
#X connect 18 0 16 0;
#X connect 20 0 16 0;
#X connect 21 0 16 0;
#X restore 38 112 pd vst-amp;
#X obj 39 169 *~;
#X obj 106 140 *~;
#X obj 127 114 hsl 162 19 0 1 0 0 empty empty guitar\ vol 10 10 0 12 #fcfcfc #000000 #000000 0 1;
#X obj 124 88 r guitar-volume;
#X obj 305 487 hsl 162 19 0 1 0 0 empty empty MAIN\ VOLUME 10 10 0 12 #fcfcfc #000000 #000000 0 1;
#X obj 302 463 r general-volume;
#X obj 235 622 dac~ 1 2, f 10;
#X obj 235 592 *~;
#X obj 284 590 *~;
#N canvas 92 130 1028 567 vst-rev 0;
#X obj 189 261 vstplugin~;
#N canvas 101 355 513 414 message-out 0;
#X obj 20 17 inlet;
#X obj 20 63 s \$0-program-data;
#X obj 20 40 route program_data bank_data, f 39;
#X obj 135 63 s \$0-bank-data;
#X obj 278 135 print;
#X obj 278 114 spigot 1;
#X obj 337 114 tgl 15 0 empty empty empty 17 7 0 10 #fcfcfc #000000 #000000 0 1;
#X text 358 113 print messages;
#X obj 251 86 s \$0-out;
#X obj 251 63 t a a;
#X msg 28 178 param_automated <index> <value>;
#X msg 28 204 latency <numsamples>;
#X msg 30 257 midi <bytes...>;
#X msg 29 284 sysex <bytes...>;
#X text 233 172 a parameter has been changed in the GUI (or by changing a linked parameter)., f 40;
#X text 162 204 the plugin's internal processing latency has changed;
#X text 139 257 a MIDI message sent by the plugin;
#X text 139 284 a SysEx message sent by the plugin;
#X text 28 153 events:;
#X text 163 222 NOTE: the value includes the additional latency caused by multithreading (see the "-t" flag for "open"), f 55;
#X msg 29 337 crash;
#X text 312 85 goes to vstpresetbrowser;
#X text 23 87 see [pd preset];
#X text 83 338 the plugin subprocess has crashed.;
#X text 84 356 This is only sent for bridged or sandboxed plugins \, because normal plugins would simply crash Pd., f 52;
#X msg 29 311 update;
#X text 87 312 multiple parameters have changed internally;
#X connect 0 0 2 0;
#X connect 2 0 1 0;
#X connect 2 1 3 0;
#X connect 2 2 9 0;
#X connect 5 0 4 0;
#X connect 6 0 5 1;
#X connect 9 0 8 0;
#X connect 9 1 5 0;
#X restore 256 287 pd message-out;
#X msg 59 261 param_list;
#X obj 59 235 r \$0-rev-msg;
#X text 76 202 VALHALLA SUPERMASSIVE REVERB PLUGIN;
#X obj 171 339 outlet~;
#X obj 233 339 outlet~;
#X msg 549 174 open -e ValhallaSupermassive;
#X obj 549 106 loadbang;
#X msg 771 158 \; pd dsp 1;
#X obj 461 333 s \$0-rev-msg;
#X msg 475 259 preset_list;
#X text 567 260 find out path of presets;
#X text 658 283 save current settings as preset;
#X msg 475 309 param_list;
#X text 563 309 print list of plugin parameters;
#X msg 475 284 preset_save <Clicks> 0;
#X obj 549 151 del 5;
#X obj 460 151 del 10;
#X msg 460 202 program_read /Users/vincemad/Library/Audio/Presets/Valhalla\\\ DSP\\\,\\\ LLC/ValhallaSupermassive/_Clicks_.fxp, f 63;
#X obj 191 70 inlet~;
#X obj 282 72 inlet~;
#X connect 0 0 5 0;
#X connect 0 1 6 0;
#X connect 0 2 1 0;
#X connect 2 0 0 0;
#X connect 3 0 0 0;
#X connect 7 0 10 0;
#X connect 8 0 9 0;
#X connect 8 0 17 0;
#X connect 8 0 18 0;
#X connect 11 0 10 0;
#X connect 14 0 10 0;
#X connect 16 0 10 0;
#X connect 17 0 7 0;
#X connect 18 0 19 0;
#X connect 19 0 10 0;
#X connect 20 0 0 0;
#X connect 21 0 0 1;
#X restore 235 564 pd vst-rev;
#N canvas 0 38 1512 916 delay 0;
#X floatatom 310 229 5 0 0 0 - - - 0;
#X floatatom 367 229 5 0 0 0 - - - 0;
#X obj 311 180 * 300;
#X obj 311 204 + 70;
#X obj 116 126 hsl 120 19 0 1 0 0 empty empty sd-del-time 10 10 0 12 #e3c6ff #000000 #000000 0 1;
#X obj 116 159 hsl 120 19 0 1 0 0 empty empty sd-del-feedback 10 10 0 12 #c7c6ff #000000 #000000 0 1;
#X obj 311 113 r del-time;
#X obj 448 203 r del-feedback;
#X obj 498 352 +~;
#X obj 680 358 +~;
#X obj 528 352 *~ 0.3;
#X obj 711 359 *~ 0.3;
#X obj 711 332 delread~ \$0-del-1L 160;
#X obj 692 388 delwrite~ \$0-del-1L 2000;
#X obj 528 325 delread~ \$0-del-1R 160;
#X obj 507 383 delwrite~ \$0-del-1R 2000;
#X obj 504 92 inlet~;
#X obj 644 75 inlet~;
#X obj 492 488 outlet~;
#X obj 676 480 outlet~;
#X connect 0 0 12 0;
#X connect 0 0 14 0;
#X connect 1 0 10 1;
#X connect 1 0 11 1;
#X connect 2 0 3 0;
#X connect 3 0 0 0;
#X connect 4 0 2 0;
#X connect 5 0 1 0;
#X connect 6 0 4 0;
#X connect 7 0 5 0;
#X connect 8 0 15 0;
#X connect 8 0 18 0;
#X connect 9 0 13 0;
#X connect 9 0 19 0;
#X connect 10 0 8 1;
#X connect 11 0 9 1;
#X connect 12 0 11 0;
#X connect 14 0 10 0;
#X connect 16 0 8 0;
#X connect 17 0 9 0;
#X coords 0 -1 1 1 150 100 1 100 100;
#X restore 118 411 pd delay;
#X obj 956 119 route list;
#X obj 530 39 declare -lib zexy;
#X obj 844 241 unpack f f f;
#X obj 1064 241 unpack f f f;
#X listbox 844 214 27 0 0 0 - - - 0;
#X listbox 1064 214 35 0 0 0 - - - 0;
#X obj 844 278 vsl 19 162 -1 1 0 0 empty empty empty 0 -9 0 12 #fcfcfc #000000 #000000 0 1;
#X obj 884 278 vsl 19 162 -1 1 0 0 empty empty empty 0 -9 0 12 #fcfcfc #000000 #000000 0 1;
#X obj 925 278 vsl 19 162 -1 1 0 0 empty empty empty 0 -9 0 12 #fcfcfc #000000 #000000 0 1;
#X obj 1064 271 vsl 19 162 -360 360 0 0 empty empty empty 0 -9 0 12 #fcfcfc #000000 #000000 0 1;
#X obj 1104 278 vsl 19 162 -360 360 0 0 empty empty empty 0 -9 0 12 #fcfcfc #000000 #000000 0 1;
#X obj 1145 278 vsl 19 162 -360 360 0 0 empty empty empty 0 -9 0 12 #fcfcfc #000000 #000000 0 1;
#X text 978 39 LEFT HAND;
#X obj 151 255 bit-crush;
#X obj 844 531 vsl 19 162 -1 1 0 0 empty empty empty 0 -9 0 12 #fcfcfc #000000 #000000 0 1;
#X obj 844 453 sig~;
#X obj 844 501 snapshot~;
#X obj 758 371 tgl 19 0 empty empty empty 0 -10 0 12 #fcfcfc #000000 #000000 0 1;
#X obj 758 395 metro 50;
#X obj 918 534 vsl 19 162 -1 1 0 0 empty empty empty 0 -9 0 12 #fcfcfc #000000 #000000 0 1;
#X obj 918 456 sig~;
#X obj 918 504 snapshot~;
#X obj 994 534 vsl 19 162 -1 1 0 0 empty empty empty 0 -9 0 12 #fcfcfc #000000 #000000 0 1;
#X obj 994 456 sig~;
#X obj 994 504 snapshot~;
#X obj 1079 451 sig~;
#X obj 1079 499 snapshot~;
#X obj 1153 454 sig~;
#X obj 1153 502 snapshot~;
#X obj 1229 454 sig~;
#X obj 1229 502 snapshot~;
#X obj 1096 536 vsl 19 162 -360 360 0 0 empty empty empty 0 -9 0 12 #fcfcfc #000000 #000000 0 1;
#X obj 1136 543 vsl 19 162 -360 360 0 0 empty empty empty 0 -9 0 12 #fcfcfc #000000 #000000 0 1;
#X obj 1177 543 vsl 19 162 -360 360 0 0 empty empty empty 0 -9 0 12 #fcfcfc #000000 #000000 0 1;
#X obj 844 477 lop~ 3;
#X obj 918 480 lop~ 3;
#X obj 994 480 lop~ 3;
#X obj 1079 475 lop~ 3;
#X obj 1153 478 lop~ 3;
#X obj 1229 478 lop~ 3;
#X obj 685 797 s bit-crush;
#X obj 611 550 rzero~ 1;
#X obj 611 523 +~;
#X obj 611 605 snapshot~;
#X obj 611 657 vsl 19 162 -1 1 0 0 empty empty empty 0 -9 0 12 #fcfcfc #000000 #000000 0 1;
#X obj 685 747 - 1;
#X obj 685 771 abs;
#X obj 670 829 s del-feedback;
#X obj 611 629 * 1000;
#X obj 465 719 * 10;
#X obj 453 359 vcf~ 100;
#X obj 611 576 rzero~ 1;
#X text 599 488 DERIVATIVE;
#N canvas 92 130 450 278 (subpatch) 0;
#X array acc-x 20 float 1;
#A 0 0.0217285 0.0214844 0.0185547 0.0216064 0.0206299 0.0224609 0.0229492 0.022583 0.0274658 0.0272217 0.0245361 0.0245361 0.0200195 0.0236816 0.0227051 0.0216064 0.0214844 0.0257568 0.0257568 0.0220947;
#X coords 0 3 19 -3 200 70 1 0 0;
#X restore 1500 117 graph;
#X obj 989 880 f;
#X obj 1022 881 + 1;
#X obj 905 906 tabwrite gyro-x;
#X obj 905 881 t f b;
#X obj 1099 902 until;
#X obj 1099 930 f;
#X obj 1146 903 + 1;
#X obj 1099 955 tabread gyro-x;
#X obj 1065 981 f;
#X msg 1065 874 0;
#X obj 1066 822 bng 19 250 50 0 empty empty empty 0 -10 0 12 #fcfcfc #000000 #000000;
#X obj 1066 846 t b b;
#X obj 1099 982 +, f 4;
#X msg 1099 876 20;
#X obj 1146 927 % 20;
#X obj 1022 905 % 20;
#X obj 1099 1006 / 20;
#N canvas 0 22 450 278 (subpatch) 0;
#X array acc-x-mean 20 float 1;
#A 0 0.00107422 0.00128784 0.00128784 0.00110474 0.00108643 0.00107422 0.000927734 0.00108032 0.00103149 0.00112305 0.00114746 0.00112915 0.00137329 0.00136108 0.00122681 0.00122681 0.00100098 0.00118408 0.00113525 0.00108032;
#X coords 0 3 19 -3 200 70 1 0 0;
#X restore 1500 210 graph;
#X obj 1222 1034 f;
#X obj 1259 1035 + 1;
#X obj 1099 1033 t f b;
#X obj 1259 1059 % 20;
#X obj 907 941 -;
#X obj 907 965 *;
#X obj 907 989 / 20;
#X obj 907 1013 sqrt;
#N canvas 0 22 450 278 (subpatch) 0;
#X array acc-x-std 20 float 1;
#A 0 0.00466466 0.0045924 0.00422088 0.00423349 0.0044779 0.00466323 0.00484196 0.00485574 0.00533302 0.00587944 0.00554383 0.0052517 0.00471979 0.00463314 0.00495024 0.00471784 0.00458294 0.00502433 0.00552466 0.00509881;
#X coords 0 3 19 -3 200 70 1 0 0;
#X restore 1500 307 graph;
#X obj 1018 1037 f;
#X obj 1054 1037 + 1;
#X obj 907 1038 t f b;
#X obj 1054 1061 % 20;
#X obj 907 1062 tabwrite gyro-x-std;
#X obj 1099 1061 tabwrite gyro-x-mean;
#N canvas 92 130 450 278 (subpatch) 0;
#X array acc-y 20 float 1;
#A 0 -0.676392 -0.680176 -0.682861 -0.68103 -0.673584 -0.682739 -0.678833 -0.682861 -0.667603 -0.672485 -0.681763 -0.681763 -0.684326 -0.684937 -0.682373 -0.678467 -0.674316 -0.672607 -0.672607 -0.67688;
#X coords 0 3 19 -3 200 70 1 0 0;
#X restore 1728 119 graph;
#N canvas 0 22 450 278 (subpatch) 0;
#X array acc-y-mean 20 float 1;
#A 0 0.0374939 0.0376038 0.0376038 0.0376709 0.0374084 0.0371887 0.0371582 0.0373047 0.0369141 0.0372681 0.0373779 0.0376953 0.0374878 0.0376831 0.037854 0.037854 0.0370728 0.0371094 0.0373596 0.0374268;
#X coords 0 3 19 -3 200 70 1 0 0;
#X restore 1728 212 graph;
#N canvas 0 22 450 278 (subpatch) 0;
#X array acc-y-std 20 float 1;
#A 0 0.159654 0.160033 0.160757 0.160852 0.159813 0.161225 0.160569 0.160583 0.159319 0.158167 0.159748 0.160788 0.161075 0.16143 0.161211 0.160488 0.159587 0.158932 0.158741 0.159218;
#X coords 0 3 19 -3 200 70 1 0 0;
#X restore 1728 309 graph;
#N canvas 92 130 450 278 (subpatch) 0;
#X array acc-z 20 float 1;
#A 0 0.748169 0.743774 0.743164 0.746094 0.738281 0.745361 0.747559 0.753906 0.749756 0.753662 0.75708 0.75708 0.741455 0.742188 0.747192 0.748535 0.749878 0.752075 0.752075 0.753418;
#X coords 0 3 19 -3 200 70 1 0 0;
#X restore 1949 120 graph;
#N canvas 0 22 450 278 (subpatch) 0;
#X array acc-z-mean 20 float 1;
#A 0 0.0374084 -0.0185815 -0.0182043 -0.021422 -0.0224491 -0.0229523 -0.0205702 -0.0257033 -0.0247273 0.00338158 0.0103835 -0.0566988 -0.0280186 0.0115071 -0.0524788 0.0128532 0.00331401 -0.0154758 -0.0152926 -0.01385;
#X coords 0 3 19 -3 200 70 1 0 0;
#X restore 1949 213 graph;
#N canvas 0 22 450 278 (subpatch) 0;
#X array acc-z-std 20 float 1;
#A 0 0.159528 0.158439 0.15788 0.158139 0.157591 0.15819 0.158572 0.159526 0.159772 0.159745 0.160564 0.160947 0.15919 0.157535 0.158175 0.158886 0.159186 0.159582 0.159828 0.159978;
#X coords 0 3 19 -3 200 70 1 0 0;
#X restore 1949 310 graph;
#X obj 1396 879 f;
#X obj 1429 880 + 1;
#X obj 1312 880 t f b;
#X obj 1506 901 until;
#X obj 1506 929 f;
#X obj 1553 902 + 1;
#X obj 1472 980 f;
#X msg 1472 873 0;
#X obj 1473 821 bng 19 250 50 0 empty empty empty 0 -10 0 12 #fcfcfc #000000 #000000;
#X obj 1473 845 t b b;
#X obj 1506 981 +, f 4;
#X msg 1506 875 20;
#X obj 1553 926 % 20;
#X obj 1429 904 % 20;
#X obj 1506 1005 / 20;
#X obj 1629 1033 f;
#X obj 1666 1034 + 1;
#X obj 1506 1032 t f b;
#X obj 1666 1058 % 20;
#X obj 1314 940 -;
#X obj 1314 964 *;
#X obj 1314 988 / 20;
#X obj 1314 1012 sqrt;
#X obj 1425 1036 f;
#X obj 1461 1036 + 1;
#X obj 1314 1037 t f b;
#X obj 1461 1060 % 20;
#X obj 1314 1061 tabwrite gyro-y-std;
#X obj 1312 905 tabwrite gyro-y;
#X obj 1506 1060 tabwrite gyro-y-mean;
#X obj 1802 877 f;
#X obj 1835 878 + 1;
#X obj 1718 878 t f b;
#X obj 1912 899 until;
#X obj 1912 927 f;
#X obj 1959 900 + 1;
#X obj 1878 978 f;
#X msg 1878 871 0;
#X obj 1879 819 bng 19 250 50 0 empty empty empty 0 -10 0 12 #fcfcfc #000000 #000000;
#X obj 1879 843 t b b;
#X obj 1912 979 +, f 4;
#X msg 1912 873 20;
#X obj 1959 924 % 20;
#X obj 1835 902 % 20;
#X obj 1912 1003 / 20;
#X obj 2035 1031 f;
#X obj 2072 1032 + 1;
#X obj 1912 1030 t f b;
#X obj 2072 1056 % 20;
#X obj 1720 938 -;
#X obj 1720 962 *;
#X obj 1720 986 / 20;
#X obj 1720 1010 sqrt;
#X obj 1831 1034 f;
#X obj 1867 1034 + 1;
#X obj 1720 1035 t f b;
#X obj 1867 1058 % 20;
#X obj 1718 903 tabwrite gyro-z;
#X obj 1720 1059 tabwrite gyro-z-std;
#X obj 1912 952 tabread gyro-z;
#X obj 1912 1058 tabwrite gyro-z-mean;
#X obj 1506 954 tabread gyro-z;
#N canvas 92 130 450 278 (subpatch) 0;
#X array gyro-x 20 float 1;
#A 0 -2.19727 -0.854492 1.52588 2.62451 2.80762 2.44141 0.0610352 -0.976562 -1.28174 -1.52588 -0.854492 1.0376 -0.976562 0.549316 1.95312 2.0752 3.23486 0.244141 -1.0376 -1.83105;
#X coords 0 360 19 -360 200 70 1 0 0;
#X restore 1497 468 graph;
#N canvas 0 22 450 278 (subpatch) 0;
#X array gyro-x-mean 20 float 1;
#A 0 -0.0762939 -0.0427246 0.0518799 -0.0488281 0.0274658 0.0976562 0.10376 0.161743 0.012207 -0.0518799 -0.0915527 -0.109863 -0.0427246 0.0762939 0.131226 0.140381 0.12207 0.00305176 -0.0488281 -0.0640869;
#X coords 0 360 19 -360 200 70 1 0 0;
#X restore 1497 561 graph;
#N canvas 0 22 450 278 (subpatch) 0;
#X array gyro-x-std 20 float 1;
#A 0 0.434601 0.278778 0 0.472902 0.631565 0.610052 0.14765 0 0.225351 0.288045 0.229609 0 0.288991 0 0.23736 0.454952 0.584246 0.207911 0 0.303239;
#X coords 0 360 19 -360 200 70 1 0 0;
#X restore 1497 658 graph;
#N canvas 92 130 450 278 (subpatch) 0;
#X array gyro-y 20 float 1;
#A 0 0.0610352 0 -0.610352 -0.854492 -1.09863 -0.793457 -0.366211 0 0.0610352 0.12207 -0.12207 -0.366211 -0.183105 -0.366211 -0.732422 -1.09863 -0.549316 -0.305176 0.0610352 0.244141;
#X coords 0 360 19 -360 200 70 1 0 0;
#X restore 1725 470 graph;
#N canvas 0 22 450 278 (subpatch) 0;
#X array gyro-y-mean 20 float 1;
#A 0 0.0244141 0.0213623 0 0.0152588 0 -0.00610352 -0.0244141 -0.00305176 0.00915527 0.012207 0.0213623 0.0183105 0.0213623 -0.00305176 -0.0152588 -0.0244141 -0.00915527 0.012207 0.0183105 0.0274658;
#X coords 0 360 19 -360 200 70 1 0 0;
#X restore 1725 563 graph;
#N canvas 0 22 450 278 (subpatch) 0;
#X array gyro-y-std 20 float 1;
#A 0 0.022259 0 0.0239908 0.165635 0.220779 0.21292 0.124928 0.0187627 0 0.0148881 0 0.0519516 0 0.0607905 0.118697 0.203367 0.176602 0.0943975 0 0.0237959;
#X coords 0 360 19 -360 200 70 1 0 0;
#X restore 1725 660 graph;
#N canvas 92 130 450 278 (subpatch) 0;
#X array gyro-z 20 float 1;
#A 0 0.366211 0.427246 -0.0610352 -0.305176 -0.488281 -0.183105 0.244141 0.366211 0.549316 0.488281 0.427246 0 0.305176 0 -0.12207 -0.488281 -0.0610352 0.183105 0.244141 0.427246;
#X coords 0 360 19 -360 200 70 1 0 0;
#X restore 1946 471 graph;
#N canvas 0 22 450 278 (subpatch) 0;
#X array gyro-z-mean 20 float 1;
#A 0 0.0244141 0.0213623 0 0.0152588 0 -0.00610352 -0.0244141 -0.00305176 0.00915527 0.012207 0.0213623 0.0183105 0.0213623 -0.00305176 -0.0152588 -0.0244141 -0.00915527 0.012207 0.0183105 0.0274658;
#X coords 0 360 19 -360 200 70 1 0 0;
#X restore 1946 564 graph;
#N canvas 0 22 450 278 (subpatch) 0;
#X array gyro-z-std 20 float 1;
#A 0 0.0849683 0.0843412 0 0.035824 0.0905195 0.0714268 0 0.0626763 0.0961086 0.111704 0.0980275 0 0.0655098 0 0.00905298 0.0579673 0.0428117 0 0.044518 0.0693763;
#X coords 0 360 19 -360 200 70 1 0 0;
#X restore 1946 661 graph;
#X obj 1015 1186 f;
#X obj 1048 1187 + 1;
#X obj 931 1187 t f b;
#X obj 1125 1208 until;
#X obj 1125 1236 f;
#X obj 1172 1209 + 1;
#X obj 1091 1287 f;
#X msg 1091 1180 0;
#X obj 1092 1128 bng 19 250 50 0 empty empty empty 0 -10 0 12 #fcfcfc #000000 #000000;
#X obj 1092 1152 t b b;
#X obj 1125 1288 +, f 4;
#X msg 1125 1182 20;
#X obj 1172 1233 % 20;
#X obj 1048 1211 % 20;
#X obj 1125 1312 / 20;
#X obj 1248 1340 f;
#X obj 1285 1341 + 1;
#X obj 1125 1339 t f b;
#X obj 1285 1365 % 20;
#X obj 933 1247 -;
#X obj 933 1271 *;
#X obj 933 1295 / 20;
#X obj 933 1319 sqrt;
#X obj 1044 1343 f;
#X obj 1080 1343 + 1;
#X obj 933 1344 t f b;
#X obj 1080 1367 % 20;
#X obj 1422 1185 f;
#X obj 1455 1186 + 1;
#X obj 1338 1186 t f b;
#X obj 1532 1207 until;
#X obj 1532 1235 f;
#X obj 1579 1208 + 1;
#X obj 1498 1286 f;
#X msg 1498 1179 0;
#X obj 1499 1127 bng 19 250 50 0 empty empty empty 0 -10 0 12 #fcfcfc #000000 #000000;
#X obj 1499 1151 t b b;
#X obj 1532 1287 +, f 4;
#X msg 1532 1181 20;
#X obj 1579 1232 % 20;
#X obj 1455 1210 % 20;
#X obj 1532 1311 / 20;
#X obj 1655 1339 f;
#X obj 1692 1340 + 1;
#X obj 1532 1338 t f b;
#X obj 1692 1364 % 20;
#X obj 1340 1246 -;
#X obj 1340 1270 *;
#X obj 1340 1294 / 20;
#X obj 1340 1318 sqrt;
#X obj 1451 1342 f;
#X obj 1487 1342 + 1;
#X obj 1340 1343 t f b;
#X obj 1487 1366 % 20;
#X obj 1828 1183 f;
#X obj 1861 1184 + 1;
#X obj 1744 1184 t f b;
#X obj 1938 1205 until;
#X obj 1938 1233 f;
#X obj 1985 1206 + 1;
#X obj 1904 1284 f;
#X msg 1904 1177 0;
#X obj 1905 1125 bng 19 250 50 0 empty empty empty 0 -10 0 12 #fcfcfc #000000 #000000;
#X obj 1905 1149 t b b;
#X obj 1938 1285 +, f 4;
#X msg 1938 1179 20;
#X obj 1985 1230 % 20;
#X obj 1861 1208 % 20;
#X obj 1938 1309 / 20;
#X obj 2061 1337 f;
#X obj 1938 1336 t f b;
#X obj 1746 1244 -;
#X obj 1746 1268 *;
#X obj 1746 1292 / 20;
#X obj 1746 1316 sqrt;
#X obj 1857 1340 f;
#X obj 1893 1340 + 1;
#X obj 1746 1341 t f b;
#X obj 1893 1364 % 20;
#X obj 931 1212 tabwrite acc-x;
#X obj 933 1368 tabwrite acc-x-std;
#X obj 1125 1261 tabread acc-x;
#X obj 1125 1367 tabwrite acc-x-mean;
#X obj 1338 1211 tabwrite acc-y;
#X obj 1340 1367 tabwrite acc-y-std;
#X obj 1532 1260 tabread acc-z;
#X obj 1532 1366 tabwrite acc-y-mean;
#X obj 1744 1209 tabwrite acc-z;
#X obj 1746 1365 tabwrite acc-z-std;
#X obj 1938 1258 tabread acc-z;
#X obj 1938 1364 tabwrite acc-z-mean;
#X obj 136 1073 hsl 162 19 -3 3 0 0 empty empty gyro-x-std 10 10 0 12 #fcfcfc #000000 #000000 0 1;
#X obj 136 1054 hsl 162 19 -3 3 0 0 empty empty gyro-x-mean 10 10 0 12 #fcfcfc #000000 #000000 0 1;
#X obj 136 1128 hsl 162 19 -3 3 0 0 empty empty gyro-y-std 10 10 0 12 #fcfcfc #000000 #000000 0 1;
#X obj 136 1109 hsl 162 19 -3 3 0 0 empty empty gyro-y-mean 10 10 0 12 #fcfcfc #000000 #000000 0 1;
#X obj 137 1187 hsl 162 19 -3 3 0 0 empty empty gyro-z-std 10 10 0 12 #fcfcfc #000000 #000000 0 1;
#X obj 137 1168 hsl 162 19 -3 3 0 0 empty empty gyro-z-mean 10 10 0 12 #fcfcfc #000000 #000000 0 1;
#X obj 139 868 hsl 162 19 -360 360 0 0 empty empty acc-x-mean 10 10 0 12 #fcfcfc #000000 #000000 0 1;
#X obj 139 886 hsl 162 19 -360 360 0 0 empty empty acc-x-std 10 10 0 12 #fcfcfc #000000 #000000 0 1;
#X obj 139 916 hsl 162 19 -360 360 0 0 empty empty acc-y-mean 10 10 0 12 #fcfcfc #000000 #000000 0 1;
#X obj 139 934 hsl 162 19 -360 360 0 0 empty empty acc-y-std 10 10 0 12 #fcfcfc #000000 #000000 0 1;
#X obj 139 968 hsl 162 19 -360 360 0 0 empty empty acc-z-mean 10 10 0 12 #fcfcfc #000000 #000000 0 1;
#X obj 139 986 hsl 162 19 -360 360 0 0 empty empty acc-z-std 10 10 0 12 #fcfcfc #000000 #000000 0 1;
#X obj 956 63 netreceive -u -b 9998;
#X obj 956 91 oscparse;
#X obj 844 186 route accelerometer_right;
#X obj 1064 186 route gyroscope_right;
#X obj 524 1110 sel 1 0;
#X floatatom 535 1058 5 0 0 0 - - - 0;
#X obj 483 1126 tgl 19 0 empty empty empty 0 -10 0 12 #fcfcfc #000000 #000000 0 1;
#X obj 524 1086 expr if($f1 > 0.13 \, 1 \, 0);
#X obj 289 1279 expr if($f1 > 0.03 && $f2 < 0.6 \, 1 \, 0);
#X obj 289 1306 tgl 19 0 empty empty empty 0 -10 0 12 #fcfcfc #000000 #000000 0 1;
#X obj 283 1394 tgl 19 0 empty empty empty 0 -10 0 12 #fcfcfc #000000 #000000 0 1;
#X obj 283 1367 expr if($f1 < 0.03 && $f2 < 0.2 \, 1 \, 0);
#X connect 0 0 1 0;
#X connect 1 0 2 0;
#X connect 1 1 3 0;
#X connect 2 0 26 0;
#X connect 2 0 63 0;
#X connect 3 0 26 0;
#X connect 4 0 3 1;
#X connect 4 0 2 1;
#X connect 5 0 4 0;
#X connect 6 0 9 1;
#X connect 6 0 10 1;
#X connect 7 0 6 0;
#X connect 9 0 8 0;
#X connect 10 0 8 1;
#X connect 11 0 9 0;
#X connect 11 1 10 0;
#X connect 13 0 282 0;
#X connect 13 0 283 0;
#X connect 15 0 19 0;
#X connect 15 0 179 0;
#X connect 15 0 196 0;
#X connect 15 0 185 0;
#X connect 15 1 20 0;
#X connect 15 1 206 0;
#X connect 15 1 212 0;
#X connect 15 1 223 0;
#X connect 15 2 21 0;
#X connect 15 2 233 0;
#X connect 15 2 239 0;
#X connect 15 2 248 0;
#X connect 16 0 22 0;
#X connect 16 0 70 0;
#X connect 16 0 77 0;
#X connect 16 0 89 0;
#X connect 16 1 23 0;
#X connect 16 1 108 0;
#X connect 16 1 114 0;
#X connect 16 1 125 0;
#X connect 16 2 24 0;
#X connect 16 2 138 0;
#X connect 16 2 144 0;
#X connect 16 2 155 0;
#X connect 19 0 28 0;
#X connect 20 0 33 0;
#X connect 21 0 36 0;
#X connect 22 0 38 0;
#X connect 23 0 40 0;
#X connect 24 0 42 0;
#X connect 26 0 12 1;
#X connect 26 0 12 0;
#X connect 28 0 47 0;
#X connect 29 0 27 0;
#X connect 30 0 31 0;
#X connect 31 0 29 0;
#X connect 31 0 34 0;
#X connect 31 0 43 0;
#X connect 31 0 41 0;
#X connect 31 0 39 0;
#X connect 31 0 37 0;
#X connect 31 0 56 0;
#X connect 33 0 48 0;
#X connect 34 0 32 0;
#X connect 36 0 49 0;
#X connect 37 0 35 0;
#X connect 38 0 50 0;
#X connect 39 0 44 0;
#X connect 40 0 51 0;
#X connect 41 0 45 0;
#X connect 42 0 52 0;
#X connect 43 0 46 0;
#X connect 47 0 29 0;
#X connect 47 0 55 0;
#X connect 48 0 34 0;
#X connect 48 0 55 0;
#X connect 49 0 37 0;
#X connect 49 0 55 0;
#X connect 50 0 39 0;
#X connect 51 0 41 0;
#X connect 52 0 43 0;
#X connect 54 0 64 0;
#X connect 55 0 54 0;
#X connect 56 0 61 0;
#X connect 57 0 58 0;
#X connect 57 0 60 0;
#X connect 57 0 62 0;
#X connect 58 0 59 0;
#X connect 59 0 53 0;
#X connect 61 0 57 0;
#X connect 62 0 63 2;
#X connect 63 0 11 0;
#X connect 63 0 11 1;
#X connect 64 0 56 0;
#X connect 67 0 68 0;
#X connect 67 0 69 1;
#X connect 68 0 82 0;
#X connect 70 0 69 0;
#X connect 70 1 67 0;
#X connect 71 0 72 0;
#X connect 72 0 73 0;
#X connect 72 0 74 0;
#X connect 73 0 81 0;
#X connect 74 0 79 0;
#X connect 75 0 79 1;
#X connect 76 0 75 0;
#X connect 76 0 72 0;
#X connect 77 0 78 0;
#X connect 78 0 80 0;
#X connect 78 1 76 0;
#X connect 79 0 75 1;
#X connect 79 0 83 0;
#X connect 80 0 71 0;
#X connect 81 0 72 1;
#X connect 82 0 67 1;
#X connect 83 0 87 0;
#X connect 83 0 89 1;
#X connect 85 0 86 0;
#X connect 85 0 99 1;
#X connect 86 0 88 0;
#X connect 87 0 99 0;
#X connect 87 0 275 0;
#X connect 87 1 85 0;
#X connect 88 0 85 1;
#X connect 89 0 90 0;
#X connect 89 0 90 1;
#X connect 90 0 91 0;
#X connect 91 0 92 0;
#X connect 92 0 96 0;
#X connect 94 0 95 0;
#X connect 94 0 98 1;
#X connect 95 0 97 0;
#X connect 96 0 98 0;
#X connect 96 0 274 0;
#X connect 96 1 94 0;
#X connect 97 0 94 1;
#X connect 106 0 107 0;
#X connect 106 0 134 1;
#X connect 107 0 119 0;
#X connect 108 0 134 0;
#X connect 108 1 106 0;
#X connect 109 0 110 0;
#X connect 110 0 111 0;
#X connect 110 0 167 0;
#X connect 111 0 118 0;
#X connect 112 0 116 1;
#X connect 113 0 112 0;
#X connect 113 0 110 0;
#X connect 114 0 115 0;
#X connect 115 0 117 0;
#X connect 115 1 113 0;
#X connect 116 0 112 1;
#X connect 116 0 120 0;
#X connect 117 0 109 0;
#X connect 118 0 110 1;
#X connect 119 0 106 1;
#X connect 120 0 123 0;
#X connect 120 0 125 1;
#X connect 121 0 122 0;
#X connect 121 0 135 1;
#X connect 122 0 124 0;
#X connect 123 0 135 0;
#X connect 123 0 276 0;
#X connect 123 1 121 0;
#X connect 124 0 121 1;
#X connect 125 0 126 0;
#X connect 125 0 126 1;
#X connect 126 0 127 0;
#X connect 127 0 128 0;
#X connect 128 0 131 0;
#X connect 129 0 130 0;
#X connect 129 0 133 1;
#X connect 130 0 132 0;
#X connect 131 0 133 0;
#X connect 131 0 277 0;
#X connect 131 0 288 0;
#X connect 131 0 291 0;
#X connect 131 1 129 0;
#X connect 132 0 129 1;
#X connect 136 0 137 0;
#X connect 136 0 163 1;
#X connect 137 0 149 0;
#X connect 138 0 163 0;
#X connect 138 1 136 0;
#X connect 139 0 140 0;
#X connect 140 0 141 0;
#X connect 140 0 165 0;
#X connect 141 0 148 0;
#X connect 142 0 146 1;
#X connect 143 0 142 0;
#X connect 143 0 140 0;
#X connect 144 0 145 0;
#X connect 145 0 147 0;
#X connect 145 1 143 0;
#X connect 146 0 142 1;
#X connect 146 0 150 0;
#X connect 147 0 139 0;
#X connect 148 0 140 1;
#X connect 149 0 136 1;
#X connect 150 0 153 0;
#X connect 150 0 155 1;
#X connect 151 0 152 0;
#X connect 151 0 166 1;
#X connect 152 0 154 0;
#X connect 153 0 166 0;
#X connect 153 0 278 0;
#X connect 153 1 151 0;
#X connect 154 0 151 1;
#X connect 155 0 156 0;
#X connect 155 0 156 1;
#X connect 156 0 157 0;
#X connect 157 0 158 0;
#X connect 158 0 161 0;
#X connect 159 0 160 0;
#X connect 159 0 164 1;
#X connect 160 0 162 0;
#X connect 161 0 164 0;
#X connect 161 0 279 0;
#X connect 161 0 291 1;
#X connect 161 1 159 0;
#X connect 162 0 159 1;
#X connect 165 0 146 0;
#X connect 167 0 116 0;
#X connect 177 0 178 0;
#X connect 177 0 256 1;
#X connect 178 0 190 0;
#X connect 179 0 256 0;
#X connect 179 1 177 0;
#X connect 180 0 181 0;
#X connect 181 0 182 0;
#X connect 181 0 258 0;
#X connect 182 0 189 0;
#X connect 183 0 187 1;
#X connect 184 0 183 0;
#X connect 184 0 181 0;
#X connect 185 0 186 0;
#X connect 186 0 188 0;
#X connect 186 1 184 0;
#X connect 187 0 183 1;
#X connect 187 0 191 0;
#X connect 188 0 180 0;
#X connect 189 0 181 1;
#X connect 190 0 177 1;
#X connect 191 0 194 0;
#X connect 191 0 196 1;
#X connect 192 0 193 0;
#X connect 192 0 259 1;
#X connect 193 0 195 0;
#X connect 194 0 259 0;
#X connect 194 0 269 0;
#X connect 194 1 192 0;
#X connect 195 0 192 1;
#X connect 196 0 197 0;
#X connect 196 0 197 1;
#X connect 197 0 198 0;
#X connect 198 0 199 0;
#X connect 199 0 202 0;
#X connect 200 0 201 0;
#X connect 200 0 257 1;
#X connect 201 0 203 0;
#X connect 202 0 257 0;
#X connect 202 0 268 0;
#X connect 202 0 285 0;
#X connect 202 1 200 0;
#X connect 203 0 200 1;
#X connect 204 0 205 0;
#X connect 204 0 260 1;
#X connect 205 0 217 0;
#X connect 206 0 260 0;
#X connect 206 1 204 0;
#X connect 207 0 208 0;
#X connect 208 0 209 0;
#X connect 208 0 262 0;
#X connect 209 0 216 0;
#X connect 210 0 214 1;
#X connect 211 0 210 0;
#X connect 211 0 208 0;
#X connect 212 0 213 0;
#X connect 213 0 215 0;
#X connect 213 1 211 0;
#X connect 214 0 210 1;
#X connect 214 0 218 0;
#X connect 215 0 207 0;
#X connect 216 0 208 1;
#X connect 217 0 204 1;
#X connect 218 0 221 0;
#X connect 218 0 223 1;
#X connect 219 0 220 0;
#X connect 219 0 263 1;
#X connect 220 0 222 0;
#X connect 221 0 263 0;
#X connect 221 0 271 0;
#X connect 221 1 219 0;
#X connect 222 0 219 1;
#X connect 223 0 224 0;
#X connect 223 0 224 1;
#X connect 224 0 225 0;
#X connect 225 0 226 0;
#X connect 226 0 229 0;
#X connect 227 0 228 0;
#X connect 227 0 261 1;
#X connect 228 0 230 0;
#X connect 229 0 261 0;
#X connect 229 0 270 0;
#X connect 229 1 227 0;
#X connect 230 0 227 1;
#X connect 231 0 232 0;
#X connect 231 0 264 1;
#X connect 232 0 244 0;
#X connect 233 0 264 0;
#X connect 233 1 231 0;
#X connect 234 0 235 0;
#X connect 235 0 236 0;
#X connect 235 0 266 0;
#X connect 236 0 243 0;
#X connect 237 0 241 1;
#X connect 238 0 237 0;
#X connect 238 0 235 0;
#X connect 239 0 240 0;
#X connect 240 0 242 0;
#X connect 240 1 238 0;
#X connect 241 0 237 1;
#X connect 241 0 245 0;
#X connect 242 0 234 0;
#X connect 243 0 235 1;
#X connect 244 0 231 1;
#X connect 245 0 247 0;
#X connect 245 0 248 1;
#X connect 246 0 267 1;
#X connect 247 0 267 0;
#X connect 247 0 273 0;
#X connect 247 1 246 0;
#X connect 248 0 249 0;
#X connect 248 0 249 1;
#X connect 249 0 250 0;
#X connect 250 0 251 0;
#X connect 251 0 254 0;
#X connect 252 0 253 0;
#X connect 252 0 265 1;
#X connect 253 0 255 0;
#X connect 254 0 265 0;
#X connect 254 0 272 0;
#X connect 254 1 252 0;
#X connect 255 0 252 1;
#X connect 258 0 187 0;
#X connect 262 0 214 0;
#X connect 266 0 241 0;
#X connect 276 0 288 1;
#X connect 280 0 281 0;
#X connect 281 0 13 0;
#X connect 282 0 15 0;
#X connect 282 0 17 0;
#X connect 283 0 16 0;
#X connect 283 0 18 0;
#X connect 285 0 287 0;
#X connect 287 0 284 0;
#X connect 287 0 286 0;
#X connect 288 0 289 0;
#X connect 291 0 290 0;
