#N canvas 63 101 973 636 12;
#X obj 97 101 bng 19 250 50 0 empty empty empty 0 -10 0 12 #fcfcfc #000000 #000000;
#X obj 134 236 array get;
#X obj 194 183 list \$0;
#X msg 258 159 clear;
#X obj 194 159 f;
#X obj 97 263 f;
#X obj 97 129 t b b b f;
#X msg 194 209 symbol acc.hand.x;
#X msg 97 290 write data/acc.hand.x.txt;
#X obj 351 97 bng 19 250 50 0 empty empty empty 0 -10 0 12 #fcfcfc #000000 #000000;
#X obj 388 232 array get;
#X obj 448 179 list \$0;
#X msg 512 155 clear;
#X obj 448 155 f;
#X obj 351 259 f;
#X obj 351 125 t b b b f;
#X obj 618 89 bng 19 250 50 0 empty empty empty 0 -10 0 12 #fcfcfc #000000 #000000;
#X obj 655 224 array get;
#X obj 715 171 list \$0;
#X msg 779 147 clear;
#X obj 715 147 f;
#X obj 618 251 f;
#X obj 618 117 t b b b f;
#X obj 101 392 bng 19 250 50 0 empty empty empty 0 -10 0 12 #fcfcfc #000000 #000000;
#X obj 138 527 array get;
#X obj 198 474 list \$0;
#X msg 262 450 clear;
#X obj 198 450 f;
#X obj 101 554 f;
#X obj 101 420 t b b b f;
#X obj 355 388 bng 19 250 50 0 empty empty empty 0 -10 0 12 #fcfcfc #000000 #000000;
#X obj 392 523 array get;
#X obj 452 470 list \$0;
#X msg 516 446 clear;
#X obj 452 446 f;
#X obj 355 550 f;
#X obj 355 416 t b b b f;
#X obj 622 380 bng 19 250 50 0 empty empty empty 0 -10 0 12 #fcfcfc #000000 #000000;
#X obj 659 515 array get;
#X obj 719 462 list \$0;
#X msg 783 438 clear;
#X obj 719 438 f;
#X obj 622 542 f;
#X obj 622 408 t b b b f;
#X msg 448 205 symbol acc.hand.y;
#X msg 351 286 write data/acc.hand.y.txt;
#X msg 618 278 write data/acc.hand.z.txt;
#X msg 715 197 symbol acc.hand.z;
#X msg 198 500 symbol gyro.hand.x;
#X msg 101 581 write data/gyro.hand.x.txt;
#X obj 97 318 text define \$0-buffer-1;
#X obj 351 314 text define \$0-buffer-2;
#X obj 618 306 text define \$0-buffer-3;
#X obj 101 609 text define \$0-buffer-4;
#X obj 355 605 text define \$0-buffer-5;
#X obj 622 597 text define \$0-buffer-6;
#X obj 258 183 s \$0-buffer-1;
#X obj 512 179 s \$0-buffer-2;
#X obj 779 171 s \$0-buffer-3;
#X obj 262 474 s \$0-buffer-4;
#X obj 516 470 s \$0-buffer-5;
#X obj 783 462 s \$0-buffer-6;
#X obj 134 262 text set \$0-buffer-1 1e+06;
#X obj 388 258 text set \$0-buffer-2 1e+06;
#X obj 655 250 text set \$0-buffer-3 1e+06;
#X obj 138 553 text set \$0-buffer-4 1e+06;
#X obj 392 549 text set \$0-buffer-5 1e+06;
#X obj 659 541 text set \$0-buffer-6 1e+06;
#X obj 375 22 bng 19 250 50 0 empty empty empty 0 -10 0 12 #fcfcfc #000000 #000000;
#X obj 375 46 t b b b b b b;
#X msg 355 577 write data/gyro.hand.y.txt;
#X msg 622 569 write data/gyro.hand.z.txt;
#X msg 452 496 symbol gyro.hand.y;
#X msg 719 488 symbol gyro.hand.z;
#X connect 0 0 6 0;
#X connect 1 0 62 0;
#X connect 2 0 7 0;
#X connect 3 0 56 0;
#X connect 4 0 2 0;
#X connect 5 0 8 0;
#X connect 6 0 5 0;
#X connect 6 1 4 0;
#X connect 6 1 1 0;
#X connect 6 2 3 0;
#X connect 6 3 4 1;
#X connect 6 3 5 1;
#X connect 7 0 1 2;
#X connect 8 0 50 0;
#X connect 9 0 15 0;
#X connect 10 0 63 0;
#X connect 11 0 44 0;
#X connect 12 0 57 0;
#X connect 13 0 11 0;
#X connect 14 0 45 0;
#X connect 15 0 14 0;
#X connect 15 1 13 0;
#X connect 15 1 10 0;
#X connect 15 2 12 0;
#X connect 15 3 13 1;
#X connect 15 3 14 1;
#X connect 16 0 22 0;
#X connect 17 0 64 0;
#X connect 18 0 47 0;
#X connect 19 0 58 0;
#X connect 20 0 18 0;
#X connect 21 0 46 0;
#X connect 22 0 21 0;
#X connect 22 1 20 0;
#X connect 22 1 17 0;
#X connect 22 2 19 0;
#X connect 22 3 20 1;
#X connect 22 3 21 1;
#X connect 23 0 29 0;
#X connect 24 0 65 0;
#X connect 25 0 48 0;
#X connect 26 0 59 0;
#X connect 27 0 25 0;
#X connect 28 0 49 0;
#X connect 29 0 28 0;
#X connect 29 1 27 0;
#X connect 29 1 24 0;
#X connect 29 2 26 0;
#X connect 29 3 27 1;
#X connect 29 3 28 1;
#X connect 30 0 36 0;
#X connect 31 0 66 0;
#X connect 32 0 72 0;
#X connect 33 0 60 0;
#X connect 34 0 32 0;
#X connect 35 0 70 0;
#X connect 36 0 35 0;
#X connect 36 1 34 0;
#X connect 36 1 31 0;
#X connect 36 2 33 0;
#X connect 36 3 34 1;
#X connect 36 3 35 1;
#X connect 37 0 43 0;
#X connect 38 0 67 0;
#X connect 39 0 73 0;
#X connect 40 0 61 0;
#X connect 41 0 39 0;
#X connect 42 0 71 0;
#X connect 43 0 42 0;
#X connect 43 1 41 0;
#X connect 43 1 38 0;
#X connect 43 2 40 0;
#X connect 43 3 41 1;
#X connect 43 3 42 1;
#X connect 44 0 10 2;
#X connect 45 0 51 0;
#X connect 46 0 52 0;
#X connect 47 0 17 2;
#X connect 48 0 24 2;
#X connect 49 0 53 0;
#X connect 68 0 69 0;
#X connect 69 0 0 0;
#X connect 69 1 23 0;
#X connect 69 2 9 0;
#X connect 69 3 30 0;
#X connect 69 4 16 0;
#X connect 69 5 37 0;
#X connect 70 0 54 0;
#X connect 71 0 55 0;
#X connect 72 0 31 2;
#X connect 73 0 38 2;
